Coordinates
version=1
nRows=11
nColumns=40
inDegrees=yes

Units are S.I. units (second, meters, Newtons, ...)
Angles are in degrees.

endheader
time	pelvis_tilt	pelvis_list	pelvis_rotation	pelvis_tx	pelvis_ty	pelvis_tz	hip_flexion_r	hip_adduction_r	hip_rotation_r	knee_angle_r	knee_angle_r_beta	ankle_angle_r	subtalar_angle_r	mtp_angle_r	hip_flexion_l	hip_adduction_l	hip_rotation_l	knee_angle_l	knee_angle_l_beta	ankle_angle_l	subtalar_angle_l	mtp_angle_l	lumbar_extension	lumbar_bending	lumbar_rotation	arm_flex_r	arm_add_r	arm_rot_r	elbow_flex_r	pro_sup_r	wrist_flex_r	wrist_dev_r	arm_flex_l	arm_add_l	arm_rot_l	elbow_flex_l	pro_sup_l	wrist_flex_l	wrist_dev_l
      0.65000000	     -3.19356339	      2.05244197	      3.57741927	     -0.26549137	      0.95448351	      1.15467073	     -2.78261897	     -0.76142507	    -22.21660047	    -13.18405972	     -0.23010525	     10.22591906	      3.92473924	    -12.31093476	     24.16700708	      3.37591050	     23.94435168	     -8.00395275	     -0.13969533	     -6.13830863	     -1.45915198	      6.17048912	     -1.94824803	     -3.75070975	      9.88852549	     12.03215726	    -16.07899133	    -11.27123102	     23.30885766	     89.95437384	      0.00000000	      0.00000000	     -8.96660466	     12.09200910	     12.70194164	      7.52068724	     89.95437384	      0.00000000	      0.00000000
      0.66000000	     -3.30253854	      2.00984531	      3.41875323	     -0.25791746	      0.95336930	      1.15417513	     -3.09657092	     -0.75665447	    -22.25163962	    -13.30839505	     -0.23227531	     10.28548186	      3.82881205	    -12.24293069	     24.73228000	      3.35252708	     23.70081598	     -7.91080488	     -0.13806959	     -6.12572539	     -1.55277026	      6.11233570	     -1.76462597	     -3.71584606	     10.09762507	     12.24484036	    -16.06761790	    -11.28592431	     23.57320925	     89.95437384	      0.00000000	      0.00000000	     -9.23316803	     12.01922502	     12.64756537	      7.49811499	     89.95437384	      0.00000000	      0.00000000
      0.67000000	     -3.45543153	      2.00053275	      3.36204838	     -0.25022003	      0.95226423	      1.15325226	     -3.45576545	     -0.76337896	    -22.18257005	    -13.28825536	     -0.23192381	     10.56414706	      3.82555820	    -12.31313487	     25.17454546	      3.17107018	     22.91865058	     -7.63419730	     -0.13324188	     -6.44923353	     -2.06576926	      6.10785698	     -1.51934779	     -3.68077868	     10.36154488	     12.30485212	    -16.09783508	    -11.50677106	     23.80843988	     89.95437384	      0.00000000	      0.00000000	     -9.31435420	     11.95815472	     12.55588826	      7.30226283	     89.95437384	      0.00000000	      0.00000000
      0.68000000	     -3.46253769	      2.01275720	      3.28706123	     -0.24241091	      0.95138780	      1.15238568	     -3.95412934	     -0.82570068	    -22.29857588	    -13.33132507	     -0.23267552	     10.72413793	      3.90303098	    -12.43324967	     25.55089458	      3.06446610	     22.33778264	     -7.76356009	     -0.13549969	     -6.75235678	     -2.24033371	      6.06375525	     -1.45023857	     -3.68164554	     10.59350618	     12.39280633	    -16.03262828	    -11.92375817	     24.06423120	     89.95437384	      0.00000000	      0.00000000	     -9.40445529	     11.91604309	     12.30191632	      7.18667601	     89.95437384	      0.00000000	      0.00000000
      0.69000000	     -3.55621210	      2.04838866	      3.07942773	     -0.23438682	      0.95033683	      1.15147864	     -4.29650147	     -0.97271138	    -22.26307189	    -13.53598439	     -0.23624750	     10.74515636	      3.76218585	    -12.30465708	     25.99372650	      2.99861731	     21.96434780	     -8.12807809	     -0.14186172	     -6.80726578	     -2.20140690	      5.98686522	     -1.25471194	     -3.68944333	     10.89130538	     12.44485273	    -16.02134270	    -11.92351380	     24.33557315	     89.95437384	      0.00000000	      0.00000000	     -9.67946159	     11.83720368	     12.24071024	      7.34123368	     89.95437384	      0.00000000	      0.00000000
      0.70000000	     -3.63556293	      2.11131847	      2.96373315	     -0.22617118	      0.94934998	      1.15030714	     -4.78736498	     -1.11934613	    -22.29958994	    -13.51598841	     -0.23589850	     10.96015730	      3.73410300	    -12.25914698	     26.42210773	      2.86441142	     21.49358250	     -8.63313307	     -0.15067660	     -6.94837782	     -2.16432964	      5.93204356	     -1.04775842	     -3.72676468	     11.18472019	     12.41061397	    -16.00021621	    -12.02116423	     24.51939315	     89.95437384	      0.00000000	      0.00000000	     -9.78833776	     11.78411475	     12.17178034	      7.35536778	     89.95437384	      0.00000000	      0.00000000
      0.71000000	     -3.60953816	      2.15501806	      3.00497940	     -0.21778193	      0.94850172	      1.14891431	     -5.48162818	     -1.21456814	    -22.29684447	    -13.37323140	     -0.23340692	     11.12568712	      4.00839844	    -12.30424997	     26.78627164	      2.72029899	     20.93487599	     -9.39795708	     -0.16402529	     -7.04431553	     -2.07885963	      5.84780847	     -0.97648963	     -3.74700041	     11.26927735	     12.36074077	    -15.89805366	    -12.29242140	     24.79492899	     89.95437384	      0.00000000	      0.00000000	     -9.81896163	     11.74681367	     11.98202180	      7.12941681	     89.95437384	      0.00000000	      0.00000000
      0.72000000	     -3.54728421	      2.15405845	      2.96111757	     -0.20910413	      0.94772490	      1.14741459	     -6.19317740	     -1.33190127	    -22.64047686	    -13.26785098	     -0.23156768	     10.95965844	      4.60364354	    -12.44399887	     26.99865600	      2.62857099	     20.32421726	    -10.13550716	     -0.17689797	     -6.87202377	     -1.93315113	      5.69761878	     -0.91220375	     -3.69449199	     11.45197876	     12.27971990	    -15.81649215	    -12.59455580	     25.01019004	     89.95437384	      0.00000000	      0.00000000	     -9.95647097	     11.68089000	     11.82037417	      7.24873030	     89.95437384	      0.00000000	      0.00000000
      0.73000000	     -3.66061678	      2.19933986	      2.74675582	     -0.20036276	      0.94670932	      1.14602086	     -6.53899100	     -1.57167141	    -22.59447359	    -13.53279494	     -0.23619183	     10.89136647	      4.48811611	    -12.28866811	     27.23415687	      2.52141592	     19.88425307	    -10.65761600	     -0.18601049	     -6.91391333	     -1.87380701	      5.61256751	     -0.61092625	     -3.69627756	     11.77843790	     12.13680274	    -15.75235486	    -12.53329129	     25.18773776	     89.95437384	      0.00000000	      0.00000000	    -10.18974208	     11.61883487	     11.79524290	      7.47424901	     89.95437384	      0.00000000	      0.00000000
      0.74000000	     -3.69323519	      2.35122833	      2.67136234	     -0.19139908	      0.94582620	      1.14420128	     -7.12155833	     -1.89186431	    -22.70870303	    -13.53654928	     -0.23625735	     10.98536414	      4.61404314	    -12.25433826	     27.39928423	      2.25591109	     19.45871292	    -11.36054542	     -0.19827892	     -6.86187637	     -1.74249571	      5.52472779	     -0.38811174	     -3.80402316	     11.99695291	     11.97591640	    -15.70023301	    -12.48779776	     25.25891543	     89.95437384	      0.00000000	      0.00000000	    -10.21606943	     11.56950198	     11.74626190	      7.33639372	     89.95437384	      0.00000000	      0.00000000
      0.75000000	     -3.70423606	      2.44925912	      2.55143193	     -0.18235974	      0.94501459	      1.14232898	     -7.65122207	     -2.20971267	    -22.78204721	    -13.67671545	     -0.23870372	     10.91327775	      4.78824808	    -12.18051470	     27.45322103	      2.04719564	     19.05772732	    -12.00380887	     -0.20950599	     -6.74004941	     -1.58391162	      5.42659308	     -0.17797670	     -3.83285106	     12.21864835	     11.81980982	    -15.62153507	    -12.38305694	     25.31689844	     89.95437384	      0.00000000	      0.00000000	    -10.32284297	     11.49980629	     11.70789316	      7.35272797	     89.95437384	      0.00000000	      0.00000000
